<svg width="120" height="120" viewBox="0 0 120 120" xmlns="http://www.w3.org/2000/svg">
  <!-- Background Circle -->
  <circle cx="60" cy="60" r="55" fill="#2c3e50" stroke="#3498db" stroke-width="3"/>
  
  <!-- Decision Tree/Branch Structure -->
  <g stroke="#3498db" stroke-width="2.5" fill="none">
    <!-- Main trunk -->
    <line x1="60" y1="85" x2="60" y2="45"/>
    
    <!-- Decision branches -->
    <line x1="60" y1="55" x2="45" y2="40"/>
    <line x1="60" y1="55" x2="75" y2="40"/>
    <line x1="60" y1="70" x2="40" y2="85"/>
    <line x1="60" y1="70" x2="80" y2="85"/>
  </g>
  
  <!-- Decision nodes (human decisions) -->
  <circle cx="60" cy="55" r="4" fill="#e74c3c"/>
  <circle cx="60" cy="70" r="4" fill="#e74c3c"/>
  
  <!-- Human decision points -->
  <circle cx="45" cy="40" r="3" fill="#27ae60"/>
  <circle cx="75" cy="40" r="3" fill="#27ae60"/>
  <circle cx="40" cy="85" r="3" fill="#27ae60"/>
  <circle cx="80" cy="85" r="3" fill="#27ae60"/>
  
  <!-- AI assistance indicator (gear) -->
  <g transform="translate(85, 25)" fill="#f39c12">
    <circle cx="0" cy="0" r="8"/>
    <circle cx="0" cy="0" r="4" fill="#2c3e50"/>
    <!-- Gear teeth -->
    <rect x="-1" y="-10" width="2" height="4"/>
    <rect x="-1" y="6" width="2" height="4"/>
    <rect x="-10" y="-1" width="4" height="2"/>
    <rect x="6" y="-1" width="4" height="2"/>
    <rect x="-7" y="-7" width="2" height="2" transform="rotate(45)"/>
    <rect x="5" y="-7" width="2" height="2" transform="rotate(45)"/>
    <rect x="-7" y="5" width="2" height="2" transform="rotate(45)"/>
    <rect x="5" y="5" width="2" height="2" transform="rotate(45)"/>
  </g>
  
  <!-- DDSE Text -->
  <text x="60" y="105" font-family="Arial, sans-serif" font-size="12" font-weight="bold" 
        text-anchor="middle" fill="#3498db">DDSE</text>
</svg>
